<svg xmlns="http://www.w3.org/2000/svg" viewBox="0 0 500 500"><g id="freepik--Screen--inject-3"><path d="M396,331.71c0-1.83-.09-102.53-.22-257.9L396,74l-306.76,0h0l.26-.26c0,93.46,0,181.61,0,257.9l-.24-.23,306.79.23-306.79.23H89v-.23c0-76.29,0-164.44,0-257.9v-.26h.29l306.76,0h.22v.22C396.13,229.18,396,329.88,396,331.71Z" style="fill:#fafafa"></path><rect x="89.25" y="73.81" width="306.79" height="257.9" style="fill:#fafafa"></rect><rect x="89.85" y="91.62" width="110.16" height="25.25" style="fill:#ebebeb"></rect><path d="M117.63,112s0-.33,0-.93,0-1.49,0-2.54c0-2.24-.06-5.34-.11-9.08l.21.21-18.27,0,.26-.26h0v6.51c0,2.1,0,4.11,0,6l-.24-.24,13.11.12,3.78.07,1,0,.37,0a10.07,10.07,0,0,1-1.29.06l-3.73.06-13.26.12h-.23V112c0-1.91,0-3.92,0-6v-3.22c0-.54,0-1.09,0-1.64V99.43h0c-.23.23.32-.32.27-.26l18.27,0h.21v.21c0,3.8-.08,6.94-.11,9.21,0,1,0,1.86,0,2.5A4.89,4.89,0,0,1,117.63,112Z" style="fill:#263238"></path><path d="M117.63,99.41s-.21.29-.65.74-1.09,1.08-1.9,1.86c-1.62,1.56-3.89,3.69-6.41,6-.71,0-.2,0-.36,0h0l0,0-.06,0-.12-.11-.23-.22-.47-.43-.9-.84-1.71-1.59L101.91,102c-.81-.78-1.46-1.41-1.91-1.86a3.7,3.7,0,0,1-.65-.74s.31.18.79.59,1.17,1,2,1.74l2.94,2.64,1.72,1.57.91.83.47.43.23.22.12.1.06.06,0,0h-.32c2.52-2.32,4.82-4.41,6.51-5.9.84-.74,1.53-1.34,2-1.74A3.49,3.49,0,0,1,117.63,99.41Z" style="fill:#263238"></path><path d="M105.44,105a20.82,20.82,0,0,1-2.86,3.67A20.59,20.59,0,0,1,99.33,112a21,21,0,0,1,2.86-3.66A20.94,20.94,0,0,1,105.44,105Z" style="fill:#263238"></path><path d="M117.75,112.11a21.46,21.46,0,0,1-3.16-3.51,21.77,21.77,0,0,1-2.76-3.85,21.28,21.28,0,0,1,3.16,3.52A21.51,21.51,0,0,1,117.75,112.11Z" style="fill:#263238"></path><path d="M187.36,103.8c0,.15-12.9.26-28.8.26s-28.79-.11-28.79-.26,12.89-.26,28.79-.26S187.36,103.66,187.36,103.8Z" style="fill:#263238"></path><rect x="198.61" y="203.78" width="197.43" height="43.26" style="fill:#A9FDF8"></rect><g style="opacity:0.8"><rect x="198.61" y="203.78" width="197.43" height="43.26" style="fill:#fff"></rect></g><rect x="211.31" y="217.3" width="16.21" height="16.21" rx="2.25" style="fill:#A9FDF8"></rect><path d="M218.19,229a1,1,0,0,1-.6-.2l-3.27-2.46a1,1,0,1,1,1.2-1.59l2.55,1.91,5.12-5.56a1,1,0,1,1,1.47,1.36l-5.73,6.22A1,1,0,0,1,218.19,229Z" style="fill:#fff"></path><rect x="198.61" y="160.3" width="197.43" height="43.26" style="fill:#A9FDF8"></rect><path d="M394.85,203.72c0,.15-43.62.26-97.42.26s-97.42-.11-97.42-.26,43.61-.26,97.42-.26S394.85,203.58,394.85,203.72Z" style="fill:#263238"></path><rect x="198.72" y="290.26" width="197.43" height="41.45" style="fill:#A9FDF8"></rect><g style="opacity:0.8"><rect x="198.72" y="290.26" width="197.43" height="41.45" style="fill:#fff"></rect></g><rect x="211.41" y="303.79" width="16.21" height="16.21" rx="2.25" style="fill:#A9FDF8"></rect><path d="M218.29,315.5a1,1,0,0,1-.6-.2l-3.27-2.46a1,1,0,0,1,1.2-1.6l2.55,1.92,5.12-5.56a1,1,0,1,1,1.47,1.35L219,315.18A1,1,0,0,1,218.29,315.5Z" style="fill:#fff"></path><g style="opacity:0.8"><rect x="198.61" y="160.3" width="197.43" height="43.26" style="fill:#fff"></rect></g><rect x="211.31" y="173.82" width="16.21" height="16.21" rx="2.25" style="fill:#A9FDF8"></rect><path d="M218.19,185.53a1,1,0,0,1-.6-.2l-3.27-2.46a1,1,0,1,1,1.2-1.59l2.55,1.91,5.12-5.56a1,1,0,0,1,1.41-.06,1,1,0,0,1,.06,1.42l-5.73,6.22A1,1,0,0,1,218.19,185.53Z" style="fill:#fff"></path><path d="M396,331.71c0-1.83-.09-102.53-.22-257.9L396,74l-306.76,0h0l.26-.26c0,93.46,0,181.61,0,257.9l-.24-.23,306.79.23-306.79.23H89v-.23c0-76.29,0-164.44,0-257.9v-.26h.29l306.76,0h.22v.22C396.13,229.18,396,329.88,396,331.71Z" style="fill:#A9FDF8"></path><path d="M89.85,91.62c0-.15,68.41-.26,152.79-.26s152.81.11,152.81.26-68.4.26-152.81.26S89.85,91.76,89.85,91.62Z" style="fill:#A9FDF8"></path><circle cx="99.19" cy="82.38" r="3.28" style="fill:#A9FDF8"></circle><circle cx="108.31" cy="82.38" r="3.28" style="fill:#A9FDF8"></circle><path d="M120.75,80.06a3.28,3.28,0,1,1-4.64,0A3.28,3.28,0,0,1,120.75,80.06Z" style="fill:#A9FDF8"></path><path d="M130,127a2.9,2.9,0,0,1,.71,0l2.08-.06,7.62-.1h.1l.06.08,3.36,4.42.05.07v.08c0,2,0,4.22,0,6.52v.26h-3.32l-13.72,0h-.22V138c0-2.26,0-4.27.06-6V132l0,0,2.34-3.67A11.47,11.47,0,0,1,130,127a1.63,1.63,0,0,1-.18.38l-.57,1-2.16,3.69,0-.09c0,1.7,0,3.71.05,6l-.22-.22,13.72,0h3.07l-.26.26c0-2.3,0-4.5,0-6.52l.05.14-3.3-4.45.17.08-7.54-.1-2.1,0A4.19,4.19,0,0,1,130,127Z" style="fill:#263238"></path><path d="M143.75,131.78a5.83,5.83,0,0,1-1.45.2c-.92.08-2.24.17-3.81.27l.21-.22a4.43,4.43,0,0,1-.79,2.33,3.09,3.09,0,0,1-1,.92,3.59,3.59,0,0,1-1.4.33,3.5,3.5,0,0,1-2.75-1.16,5.18,5.18,0,0,1-1.12-2.39l.22.18c-1.46,0-2.68-.05-3.53-.09A5.09,5.09,0,0,1,127,132a5.45,5.45,0,0,1,1.33-.12c.85,0,2.07-.07,3.53-.1H132l0,.19a4.86,4.86,0,0,0,1.05,2.12,3,3,0,0,0,2.36,1,2.76,2.76,0,0,0,1.18-.27,2.55,2.55,0,0,0,.88-.75,4.16,4.16,0,0,0,.74-2.05l0-.21h.19c1.58-.05,2.9-.08,3.83-.09A6,6,0,0,1,143.75,131.78Z" style="fill:#263238"></path><path d="M181.34,127.55a3.34,3.34,0,0,1,.85-.08v.16c-2,.1-8.19.18-15.45.18-4.5,0-8.58,0-11.53-.08l-3.49-.08a5.77,5.77,0,0,1-1.28-.1,5.77,5.77,0,0,1,1.28-.1l3.49-.08c2.95-.05,7-.08,11.53-.08,7.26,0,13.41.08,15.45.18v.16A2.83,2.83,0,0,1,181.34,127.55Z" style="fill:#263238"></path><path d="M181.34,134.1a2.83,2.83,0,0,1,.85-.08v.16c-2,.1-8.19.18-15.45.18-4.5,0-8.58,0-11.53-.08l-3.49-.08a6.66,6.66,0,0,1-1.28-.1,6.07,6.07,0,0,1,1.28-.11l3.49-.08c2.95,0,7-.07,11.53-.07,7.26,0,13.41.07,15.45.18v.16A4.07,4.07,0,0,1,181.34,134.1Z" style="fill:#263238"></path><path d="M181.34,140.64a3.34,3.34,0,0,1,.85-.08v.16c-2,.11-8.19.18-15.45.18-4.5,0-8.58,0-11.53-.07l-3.49-.09a5.77,5.77,0,0,1-1.28-.1,6.66,6.66,0,0,1,1.28-.1l3.49-.08c2.95-.05,7-.08,11.53-.08,7.26,0,13.41.08,15.45.18v.16A2.83,2.83,0,0,1,181.34,140.64Z" style="fill:#263238"></path><path d="M130,173.87a3.14,3.14,0,0,1,.71-.06l2.08-.05,7.62-.1h.1l.06.08,3.36,4.42.05.07v.08c0,2,0,4.22,0,6.52v.26h-3.32l-13.72,0h-.22v-.22c0-2.26,0-4.27.06-6v-.05l0,0,2.34-3.67a11.47,11.47,0,0,1,.85-1.24,1.63,1.63,0,0,1-.18.38l-.57,1L127.1,179l0-.09c0,1.7,0,3.71.05,6l-.22-.22,13.72,0h3.07l-.26.26c0-2.3,0-4.5,0-6.52l.05.14-3.3-4.45.17.08-7.54-.1-2.1,0A4.19,4.19,0,0,1,130,173.87Z" style="fill:#263238"></path><path d="M143.75,178.62a5.83,5.83,0,0,1-1.45.2c-.92.08-2.24.17-3.81.27l.21-.22a4.43,4.43,0,0,1-.79,2.33,3.09,3.09,0,0,1-1,.92,3.59,3.59,0,0,1-1.4.33,3.5,3.5,0,0,1-2.75-1.16,5.18,5.18,0,0,1-1.12-2.39l.22.18c-1.46,0-2.68-.05-3.53-.09a5.09,5.09,0,0,1-1.33-.13,5.7,5.7,0,0,1,1.33-.13l3.53-.09H132l0,.19a4.86,4.86,0,0,0,1.05,2.12,3,3,0,0,0,2.36,1,2.76,2.76,0,0,0,1.18-.27,2.55,2.55,0,0,0,.88-.75,4.16,4.16,0,0,0,.74-2.05l0-.21h.19c1.58,0,2.9-.08,3.83-.09A6,6,0,0,1,143.75,178.62Z" style="fill:#263238"></path><path d="M181.34,174.39a3.34,3.34,0,0,1,.85-.08v.16c-2,.1-8.19.18-15.45.18-4.5,0-8.58,0-11.53-.08l-3.49-.08a5.77,5.77,0,0,1-1.28-.1,5.77,5.77,0,0,1,1.28-.1l3.49-.08c2.95-.05,7-.08,11.53-.08,7.26,0,13.41.08,15.45.18v.16A3.34,3.34,0,0,1,181.34,174.39Z" style="fill:#263238"></path><path d="M181.34,180.94a2.83,2.83,0,0,1,.85-.08V181c-2,.1-8.19.18-15.45.18-4.5,0-8.58,0-11.53-.08l-3.49-.08a6.66,6.66,0,0,1-1.28-.1,6.07,6.07,0,0,1,1.28-.11l3.49-.08c2.95-.05,7-.07,11.53-.07,7.26,0,13.41.07,15.45.18V181A4.07,4.07,0,0,1,181.34,180.94Z" style="fill:#263238"></path><path d="M181.34,187.48a3.34,3.34,0,0,1,.85-.08v.16c-2,.11-8.19.18-15.45.18-4.5,0-8.58,0-11.53-.07l-3.49-.09a5.77,5.77,0,0,1-1.28-.1,6.66,6.66,0,0,1,1.28-.1l3.49-.08c2.95-.05,7-.08,11.53-.08,7.26,0,13.41.08,15.45.18v.16A2.83,2.83,0,0,1,181.34,187.48Z" style="fill:#263238"></path><path d="M130,220.71a3.14,3.14,0,0,1,.71-.06l2.08-.05,7.62-.1h.1l.06.08,3.36,4.42.05.07v.08c0,2,0,4.22,0,6.52v.26h-3.32l-13.72,0h-.22v-.22c0-2.26,0-4.27.06-6v0l0,0,2.34-3.67a11.47,11.47,0,0,1,.85-1.24,1.63,1.63,0,0,1-.18.38l-.57,1-2.16,3.69,0-.09c0,1.7,0,3.71.05,6l-.22-.22,13.72,0h3.07l-.26.26c0-2.3,0-4.5,0-6.52l.05.14-3.3-4.45.17.08-7.54-.1-2.1,0A4.19,4.19,0,0,1,130,220.71Z" style="fill:#263238"></path><path d="M143.75,225.46a5.83,5.83,0,0,1-1.45.2c-.92.08-2.24.17-3.81.27l.21-.22a4.43,4.43,0,0,1-.79,2.33,3.09,3.09,0,0,1-1,.92,3.41,3.41,0,0,1-1.4.32,3.46,3.46,0,0,1-2.75-1.15,5.18,5.18,0,0,1-1.12-2.39l.22.18c-1.46,0-2.68,0-3.53-.09a5.09,5.09,0,0,1-1.33-.13,5.7,5.7,0,0,1,1.33-.13l3.53-.09H132l0,.19a4.86,4.86,0,0,0,1.05,2.12,3,3,0,0,0,2.36,1,2.76,2.76,0,0,0,1.18-.27,2.55,2.55,0,0,0,.88-.75,4.16,4.16,0,0,0,.74-2.05l0-.21h.19c1.58-.06,2.9-.08,3.83-.09A6,6,0,0,1,143.75,225.46Z" style="fill:#263238"></path><path d="M181.34,221.23a3.34,3.34,0,0,1,.85-.08v.16c-2,.1-8.19.18-15.45.18-4.5,0-8.58,0-11.53-.08l-3.49-.08a5.77,5.77,0,0,1-1.28-.1,5.77,5.77,0,0,1,1.28-.1l3.49-.08c2.95-.05,7-.08,11.53-.08,7.26,0,13.41.08,15.45.18v.16A3.34,3.34,0,0,1,181.34,221.23Z" style="fill:#263238"></path><path d="M181.34,227.78a2.83,2.83,0,0,1,.85-.08v.16c-2,.1-8.19.18-15.45.18-4.5,0-8.58,0-11.53-.08l-3.49-.08a6.66,6.66,0,0,1-1.28-.1,6.07,6.07,0,0,1,1.28-.11l3.49-.08c2.95-.05,7-.07,11.53-.07,7.26,0,13.41.07,15.45.18v.16A4.07,4.07,0,0,1,181.34,227.78Z" style="fill:#263238"></path><path d="M181.34,234.32a3.34,3.34,0,0,1,.85-.08v.16c-2,.11-8.19.18-15.45.18-4.5,0-8.58,0-11.53-.07l-3.49-.09a5.77,5.77,0,0,1-1.28-.1,6.66,6.66,0,0,1,1.28-.1l3.49-.08c2.95,0,7-.08,11.53-.08,7.26,0,13.41.08,15.45.18v.16A2.83,2.83,0,0,1,181.34,234.32Z" style="fill:#263238"></path><path d="M380.12,190.55H372.5a3,3,0,0,1-3.05-3V174.85h1v12.66a2,2,0,0,0,2.05,2h7.62a2,2,0,0,0,2-2V175.29h1v12.22A3,3,0,0,1,380.12,190.55Z" style="fill:#A9FDF8"></path><rect x="368.2" y="174.92" width="16.22" height="1" style="fill:#A9FDF8"></rect><path d="M373.36,175.42h-1v-1.11a2,2,0,0,1,2-2h4a2,2,0,0,1,2,2v.89h-1v-.89a1,1,0,0,0-1-1h-4a1,1,0,0,0-1,1Z" style="fill:#A9FDF8"></path><path d="M374,186.81a18.2,18.2,0,0,1-.26-4.3,18.14,18.14,0,0,1,.26-4.29,17.53,17.53,0,0,1,.26,4.29A17.58,17.58,0,0,1,374,186.81Z" style="fill:#A9FDF8"></path><path d="M376.35,186.81a18.2,18.2,0,0,1-.26-4.3,18.14,18.14,0,0,1,.26-4.29,17.53,17.53,0,0,1,.26,4.29A17.58,17.58,0,0,1,376.35,186.81Z" style="fill:#A9FDF8"></path><path d="M378.72,186.81a18.2,18.2,0,0,1-.26-4.3,18.14,18.14,0,0,1,.26-4.29,17.53,17.53,0,0,1,.26,4.29A17.58,17.58,0,0,1,378.72,186.81Z" style="fill:#A9FDF8"></path><path d="M380.12,231.55H372.5a3.06,3.06,0,0,1-3.05-3.05V215.84h1V228.5a2.05,2.05,0,0,0,2.05,2.05h7.62a2.05,2.05,0,0,0,2-2.05V216.28h1V228.5A3,3,0,0,1,380.12,231.55Z" style="fill:#A9FDF8"></path><rect x="368.2" y="215.91" width="16.22" height="1" style="fill:#A9FDF8"></rect><path d="M373.36,216.41h-1V215.3a2,2,0,0,1,2-2h4a2,2,0,0,1,2,2v.89h-1v-.89a1,1,0,0,0-1-1h-4a1,1,0,0,0-1,1Z" style="fill:#A9FDF8"></path><path d="M374,227.8a35.61,35.61,0,0,1,0-8.59,35.61,35.61,0,0,1,0,8.59Z" style="fill:#A9FDF8"></path><path d="M376.35,227.8a35.61,35.61,0,0,1,0-8.59,35.61,35.61,0,0,1,0,8.59Z" style="fill:#A9FDF8"></path><path d="M378.72,227.8a35.61,35.61,0,0,1,0-8.59,35.61,35.61,0,0,1,0,8.59Z" style="fill:#A9FDF8"></path><path d="M380.12,321.66H372.5a3,3,0,0,1-3.05-3V306h1v12.66a2,2,0,0,0,2.05,2h7.62a2,2,0,0,0,2-2V306.4h1v12.22A3,3,0,0,1,380.12,321.66Z" style="fill:#A9FDF8"></path><rect x="368.2" y="306.03" width="16.22" height="1" style="fill:#A9FDF8"></rect><path d="M373.36,306.53h-1v-1.12a2,2,0,0,1,2-2h4a2,2,0,0,1,2,2v.9h-1v-.9a1,1,0,0,0-1-1h-4a1,1,0,0,0-1,1Z" style="fill:#A9FDF8"></path><path d="M374,317.92a35.61,35.61,0,0,1,0-8.59,35.61,35.61,0,0,1,0,8.59Z" style="fill:#A9FDF8"></path><path d="M376.35,317.92a35.61,35.61,0,0,1,0-8.59,35.61,35.61,0,0,1,0,8.59Z" style="fill:#A9FDF8"></path><path d="M378.72,317.92a35.61,35.61,0,0,1,0-8.59,35.61,35.61,0,0,1,0,8.59Z" style="fill:#A9FDF8"></path><path d="M384.26,143.3a7.47,7.47,0,0,1-.05-.93c0-.65,0-1.49,0-2.55,0-2.23-.07-5.33-.11-9.08l.21.21L366,131l.26-.26h0v3.29c0,1.09,0,2.16,0,3.21,0,2.1,0,4.12,0,6l-.24-.24,13.1.12,3.79.06,1,0,.37,0a12.53,12.53,0,0,1-1.29,0l-3.73.07-13.26.12h-.24v-.24c0-1.91,0-3.93,0-6v-6.5h0c-.23.23.32-.32.26-.27l18.28.06h.21v.2c0,3.8-.08,6.95-.1,9.21,0,1,0,1.87-.06,2.5A6.55,6.55,0,0,1,384.26,143.3Z" style="fill:#263238"></path><path d="M384.26,130.74a3.7,3.7,0,0,1-.65.74c-.45.45-1.1,1.09-1.91,1.87-1.62,1.56-3.88,3.68-6.41,6h-.36l0,0,0,0-.06-.06-.11-.11-.24-.21-.46-.43-.91-.84-1.7-1.59-2.87-2.72c-.81-.78-1.46-1.42-1.9-1.87a3.7,3.7,0,0,1-.65-.74,4.54,4.54,0,0,1,.79.59c.48.41,1.17,1,2,1.75l2.94,2.63,1.73,1.57.91.84.46.42.24.22.12.11.06,0,0,0h0c-.16,0,.36,0-.35,0,2.52-2.33,4.83-4.41,6.51-5.9.85-.75,1.54-1.34,2-1.75A3.8,3.8,0,0,1,384.26,130.74Z" style="fill:#263238"></path><path d="M372.07,136.36A22,22,0,0,1,369.2,140a20.46,20.46,0,0,1-3.25,3.33,20.41,20.41,0,0,1,2.86-3.67A20.4,20.4,0,0,1,372.07,136.36Z" style="fill:#263238"></path><path d="M384.37,143.44a22,22,0,0,1-3.16-3.51,21.74,21.74,0,0,1-2.75-3.84,22,22,0,0,1,3.16,3.51A21.13,21.13,0,0,1,384.37,143.44Z" style="fill:#263238"></path><path d="M394.85,116.87c0,.14-43.62.26-97.42.26S200,117,200,116.87s43.61-.26,97.42-.26S394.85,116.73,394.85,116.87Z" style="fill:#263238"></path><path d="M394.85,160.3c0,.14-43.62.26-97.42.26S200,160.44,200,160.3s43.61-.26,97.42-.26S394.85,160.15,394.85,160.3Z" style="fill:#263238"></path><path d="M394.85,246.26c0,.14-43.62.26-97.42.26S200,246.4,200,246.26s43.61-.26,97.42-.26S394.85,246.11,394.85,246.26Z" style="fill:#263238"></path><path d="M394.85,290.26c0,.15-43.62.26-97.42.26s-97.42-.11-97.42-.26,43.61-.26,97.42-.26S394.85,290.12,394.85,290.26Z" style="fill:#263238"></path><path d="M225.28,147s.22,0,.6-.14a2.2,2.2,0,0,0,1.28-1.07c.39-.65.19-1.62.22-2.72s0-2.35,0-3.72,0-2.9,0-4.51c0-.41,0-.82,0-1.24a3.53,3.53,0,0,0-.1-1.19,2,2,0,0,0-1.79-1.37H213.56a2,2,0,0,0-1.95,1.63c-.07.92,0,2,0,3,0,2,0,3.9,0,5.73,0,.91,0,1.8,0,2.67a5.22,5.22,0,0,0,.06,1.21,2.06,2.06,0,0,0,.55,1,2.13,2.13,0,0,0,.94.52,4.82,4.82,0,0,0,1.09.06l2.17,0,6.53.08,1.78.05a3,3,0,0,1,.62.05,2.29,2.29,0,0,1-.62,0l-1.78.05-6.53.09h-2.17a4.92,4.92,0,0,1-1.19-.06,2.43,2.43,0,0,1-1.82-1.77,5,5,0,0,1-.08-1.32c0-.87,0-1.76,0-2.67,0-1.83,0-3.74,0-5.73v-1.5a12.1,12.1,0,0,1,0-1.57,2.51,2.51,0,0,1,2.46-2l11.88,0a2.49,2.49,0,0,1,2.19,1.7,4,4,0,0,1,.12,1.34c0,.42,0,.83,0,1.24,0,1.61,0,3.12,0,4.51s0,2.62,0,3.72c0,.55,0,1.06,0,1.53a2.54,2.54,0,0,1-.31,1.29,2.35,2.35,0,0,1-1.43,1.08A1.45,1.45,0,0,1,225.28,147Z" style="fill:#263238"></path><path d="M225.28,276.77s.22,0,.6-.14a2.2,2.2,0,0,0,1.28-1.07c.39-.65.19-1.62.22-2.72s0-2.35,0-3.72,0-2.9,0-4.51c0-.41,0-.82,0-1.24a3.53,3.53,0,0,0-.1-1.19,2,2,0,0,0-1.79-1.37H213.56a2,2,0,0,0-1.95,1.62c-.07.93,0,2,0,3,0,2,0,3.9,0,5.73,0,.91,0,1.8,0,2.66a5.28,5.28,0,0,0,.06,1.22,2,2,0,0,0,.55,1,2,2,0,0,0,.94.52,4.29,4.29,0,0,0,1.09.07l2.17,0,6.53.08,1.78.05a3,3,0,0,1,.62,0,2.29,2.29,0,0,1-.62.05l-1.78.05-6.53.08-2.17,0a4.92,4.92,0,0,1-1.19-.06,2.43,2.43,0,0,1-1.82-1.77,5,5,0,0,1-.08-1.33c0-.86,0-1.75,0-2.66,0-1.83,0-3.74,0-5.73v-1.5a12.1,12.1,0,0,1,0-1.57,2.51,2.51,0,0,1,2.46-2.05l11.88,0a2.49,2.49,0,0,1,2.19,1.7,4,4,0,0,1,.12,1.34c0,.42,0,.83,0,1.24,0,1.61,0,3.12,0,4.51s0,2.62,0,3.72c0,.55,0,1.06,0,1.53a2.54,2.54,0,0,1-.31,1.29,2.29,2.29,0,0,1-1.43,1.07A1.59,1.59,0,0,1,225.28,276.77Z" style="fill:#263238"></path><path d="M198.56,328s0-.21,0-.61,0-1,0-1.79c0-1.6,0-3.92,0-6.89,0-6,0-14.65,0-25.33,0-21.38.26-50.92.56-83.55s.53-62.16.72-83.56c.07-10.68.12-19.33.16-25.33,0-3,0-5.29.06-6.88,0-.78,0-1.37,0-1.79s0-.61,0-.61,0,.2,0,.61,0,1,0,1.79c0,1.59,0,3.91,0,6.88,0,6,0,14.65,0,25.33-.05,21.38-.26,50.93-.57,83.56s-.53,62.15-.71,83.55c-.07,10.68-.12,19.33-.16,25.33,0,3,0,5.29-.06,6.89,0,.77,0,1.36,0,1.79S198.56,328,198.56,328Z" style="fill:#263238"></path><path d="M309.91,177.72c0,.14-15,.26-33.56.26s-33.56-.12-33.56-.26,15-.26,33.56-.26S309.91,177.57,309.91,177.72Z" style="fill:#263238"></path><path d="M351.86,185.12c0,.15-24.42.26-54.53.26s-54.54-.11-54.54-.26,24.42-.26,54.54-.26S351.86,185,351.86,185.12Z" style="fill:#263238"></path><path d="M309.91,264.83c0,.14-15,.26-33.56.26s-33.56-.12-33.56-.26,15-.26,33.56-.26S309.91,264.68,309.91,264.83Z" style="fill:#263238"></path><path d="M351.86,272.23c0,.14-24.42.26-54.53.26s-54.54-.12-54.54-.26,24.42-.26,54.54-.26S351.86,272.09,351.86,272.23Z" style="fill:#263238"></path><path d="M309.91,135.86c0,.15-15,.27-33.56.27s-33.56-.12-33.56-.27,15-.26,33.56-.26S309.91,135.72,309.91,135.86Z" style="fill:#263238"></path><path d="M351.86,143.27c0,.14-24.42.26-54.53.26s-54.54-.12-54.54-.26,24.42-.26,54.54-.26S351.86,143.13,351.86,143.27Z" style="fill:#263238"></path><path d="M309.91,220.4c0,.14-15,.26-33.56.26s-33.56-.12-33.56-.26,15-.26,33.56-.26S309.91,220.26,309.91,220.4Z" style="fill:#263238"></path><path d="M351.86,227.8c0,.15-24.42.26-54.53.26s-54.54-.11-54.54-.26,24.42-.26,54.54-.26S351.86,227.66,351.86,227.8Z" style="fill:#263238"></path><path d="M309.91,306.16c0,.14-15,.26-33.56.26s-33.56-.12-33.56-.26,15-.26,33.56-.26S309.91,306,309.91,306.16Z" style="fill:#263238"></path><path d="M351.86,313.56c0,.14-24.42.26-54.53.26s-54.54-.12-54.54-.26,24.42-.26,54.54-.26S351.86,313.42,351.86,313.56Z" style="fill:#263238"></path><rect x="372.86" y="97.07" width="13.21" height="13.21" style="fill:#e0e0e0"></rect><rect x="351.35" y="97.07" width="13.21" height="13.21" style="fill:#e0e0e0"></rect><rect x="329.84" y="97.07" width="13.21" height="13.21" style="fill:#e0e0e0"></rect><polygon points="103.29 131.66 108.9 138.98 113.7 131.66 103.29 131.66" style="fill:#263238"></polygon></g></svg>
